# xmcd
# 
# Track frame offsets:
#     183
#     48625
#     96960
#     121375
#     186578
#     201700
#     219958
#     249680
# 
# Disc length: 3922
# 
# Revision: 1
# Processed by: cddbd v1.5.2PL0 Copyright (c) Steve Scherf et al.
# Submitted via: BonkEnc v1.0.8
# 
DISCID=810f5008
DTITLE=Orchestre National de Jazz - [Francois Jeanneau] Orchestre National de Jazz 86
DYEAR=1986
DGENRE=Big Band
TTITLE0=Jazz Lacrymogene
TTITLE1=Sur Les Marches de la Piscine
TTITLE2=Fantaisie  Be Bop
TTITLE3=Kalimba
TTITLE4=Watershed #1
TTITLE5=Watershed #2
TTITLE6=Superfrigo
TTITLE7=Waltz
EXTD=YEAR: 1986
EXTT0=
EXTT1=
EXTT2=
EXTT3=
EXTT4=
EXTT5=
EXTT6=
EXTT7=
PLAYORDER=
